<?xml version="1.0" encoding="UTF-8"?>
<!DOCTYPE svg PUBLIC "-//W3C//DTD SVG 1.1//EN" "http://www.w3.org/Graphics/SVG/1.1/DTD/svg11.dtd">
<svg xmlns="http://www.w3.org/2000/svg" version="1.1" width="1419px" height="1169px" style="shape-rendering:geometricPrecision; text-rendering:geometricPrecision; image-rendering:optimizeQuality; fill-rule:evenodd; clip-rule:evenodd" xmlns:xlink="http://www.w3.org/1999/xlink">
<g><path style="opacity:1" fill="#3e45a9" d="M 1223.5,30.5 C 1224.83,30.5 1226.17,30.5 1227.5,30.5C 1226.12,88.7807 1200.46,132.614 1150.5,162C 1126.89,176.096 1101.89,187.096 1075.5,195C 1018.08,211.69 960.742,228.69 903.5,246C 895.882,248.821 888.216,251.487 880.5,254C 874.723,256.055 869.389,258.888 864.5,262.5C 905.363,253.873 946.696,247.04 988.5,242C 1021.56,236.389 1054.56,230.389 1087.5,224C 1113.88,217.206 1139.38,208.04 1164,196.5C 1164.83,196.833 1165.67,197.167 1166.5,197.5C 1142.97,253.801 1101.63,289.968 1042.5,306C 1030.94,309.409 1019.27,312.409 1007.5,315C 970.142,320.448 932.808,326.114 895.5,332C 879.749,334.95 864.083,338.283 848.5,342C 840.575,344.085 832.908,346.752 825.5,350C 827.116,351.077 828.949,351.577 831,351.5C 845.133,349.92 859.299,348.753 873.5,348C 920.592,347.45 967.592,345.117 1014.5,341C 1029.9,339.158 1045.23,336.991 1060.5,334.5C 1060.24,337.016 1059.41,339.35 1058,341.5C 1029.63,382.442 990.459,406.276 940.5,413C 927.35,414.065 914.183,414.898 901,415.5C 835.845,411.165 772.345,419.332 710.5,440C 677.824,455.583 648.324,475.75 622,500.5C 621.405,501.899 621.572,503.232 622.5,504.5C 642.507,523.673 662.84,542.506 683.5,561C 685.762,561.642 687.929,562.475 690,563.5C 692.814,562.034 695.647,560.534 698.5,559C 737.802,522.7 776.802,486.033 815.5,449C 837.374,447.908 859.207,447.075 881,446.5C 881.122,448.169 880.788,449.835 880,451.5C 861.461,470.04 842.295,487.873 822.5,505C 878.141,562.395 933.641,619.895 989,677.5C 989.5,595.834 989.667,514.167 989.5,432.5C 995.812,430.847 1001.81,428.347 1007.5,425C 1014.87,421.318 1021.53,416.652 1027.5,411C 1029.13,410.506 1030.8,410.34 1032.5,410.5C 1031.85,525.25 1032.52,639.917 1034.5,754.5C 803.812,754.171 573.146,754.504 342.5,755.5C 342.5,594.167 342.5,432.833 342.5,271.5C 445.833,271.5 549.167,271.5 652.5,271.5C 652.66,273.199 652.494,274.866 652,276.5C 643.274,289.283 636.107,302.95 630.5,317.5C 562.836,318.333 495.169,318.833 427.5,319C 479.871,368.844 532.371,418.677 585,468.5C 586,467.5 587,466.5 588,465.5C 595.266,449.066 602.932,432.732 611,416.5C 638.206,366.086 664.873,315.42 691,264.5C 709.654,236.53 734.487,215.697 765.5,202C 790.675,191.608 816.008,181.608 841.5,172C 908.063,153.813 974.396,134.813 1040.5,115C 1081.37,101.044 1121.7,85.7111 1161.5,69C 1184.01,58.9226 1204.68,46.0893 1223.5,30.5 Z M 390.5,352.5 C 445.276,403.407 499.609,454.74 553.5,506.5C 499.488,563.678 445.322,620.678 391,677.5C 390.5,569.167 390.333,460.834 390.5,352.5 Z M 588.5,538.5 C 609.985,559.814 632.319,580.314 655.5,600C 671.42,609.376 688.42,612.043 706.5,608C 712.423,605.913 718.089,603.246 723.5,600C 745.333,580.167 767.167,560.333 789,540.5C 842.472,595.973 895.972,651.473 949.5,707C 775.833,707.667 602.167,707.667 428.5,707C 482.149,650.859 535.482,594.692 588.5,538.5 Z"/></g>
<g><path style="opacity:1" fill="#5c69e6" d="M 346.5,750.5 C 346.5,592.167 346.5,433.833 346.5,275.5C 446.668,275.167 546.668,275.501 646.5,276.5C 638.818,288.863 632.485,301.863 627.5,315.5C 559.166,315.333 490.833,315.5 422.5,316C 421.978,316.561 421.645,317.228 421.5,318C 473.193,369.359 525.859,419.693 579.5,469C 581.116,469.615 582.449,470.615 583.5,472C 586.308,472.92 588.475,472.087 590,469.5C 597.121,453.257 604.788,437.257 613,421.5C 640.843,369.816 668.176,317.816 695,265.5C 709.028,243.47 727.528,226.303 750.5,214C 781.233,199.642 812.566,186.642 844.5,175C 909.068,157.477 973.402,139.144 1037.5,120C 1080.37,105.395 1122.71,89.3953 1164.5,72C 1185.41,62.3019 1204.91,50.4685 1223,36.5C 1221.37,73.749 1207.87,105.916 1182.5,133C 1160.08,151.878 1135.42,167.212 1108.5,179C 1092.27,184.075 1076.27,189.742 1060.5,196C 1015.15,208.872 969.813,221.872 924.5,235C 909.511,239.996 894.511,244.996 879.5,250C 872.973,252.513 866.807,255.68 861,259.5C 859.046,261.785 859.213,263.952 861.5,266C 864.5,266.667 867.5,266.667 870.5,266C 885.766,262.35 901.099,259.017 916.5,256C 961.686,250.116 1006.69,243.116 1051.5,235C 1089.36,228.929 1125.69,218.263 1160.5,203C 1135.57,255.245 1094.9,288.578 1038.5,303C 1021.38,307.946 1004.05,311.946 986.5,315C 938.649,320.026 891.315,328.026 844.5,339C 839.833,340.333 835.167,341.667 830.5,343C 826.963,344.281 823.796,346.114 821,348.5C 820.175,350.701 820.675,352.534 822.5,354C 842.864,353.887 863.198,352.887 883.5,351C 919.551,351.023 955.551,349.69 991.5,347C 1011.6,345.224 1031.6,342.724 1051.5,339.5C 1052.17,339.833 1052.83,340.167 1053.5,340.5C 1027.32,377.612 991.656,400.112 946.5,408C 920.432,411.581 894.265,412.414 868,410.5C 816.691,410.468 766.525,417.968 717.5,433C 680.408,448.956 647.242,470.79 618,498.5C 617.362,499.609 616.862,500.775 616.5,502C 617.651,503.823 618.818,505.656 620,507.5C 640.533,527.035 661.367,546.202 682.5,565C 686.406,566.434 690.406,566.767 694.5,566C 698.11,564.056 701.443,561.723 704.5,559C 742.828,523.672 780.828,488.005 818.5,452C 836.833,451.333 855.167,451.333 873.5,452C 856.101,469.402 838.101,486.069 819.5,502C 817.993,502.837 817.493,504.004 818,505.5C 875.509,565.209 933.009,624.875 990.5,684.5C 991.086,684.291 991.586,683.957 992,683.5C 992.5,600.834 992.667,518.167 992.5,435.5C 1006.06,431.304 1018.23,424.638 1029,415.5C 1029.5,527.166 1029.67,638.833 1029.5,750.5C 801.833,750.5 574.167,750.5 346.5,750.5 Z M 390.5,352.5 C 390.333,460.834 390.5,569.167 391,677.5C 445.322,620.678 499.488,563.678 553.5,506.5C 499.609,454.74 445.276,403.407 390.5,352.5 Z M 588.5,538.5 C 535.482,594.692 482.149,650.859 428.5,707C 602.167,707.667 775.833,707.667 949.5,707C 895.972,651.473 842.472,595.973 789,540.5C 767.167,560.333 745.333,580.167 723.5,600C 718.089,603.246 712.423,605.913 706.5,608C 688.42,612.043 671.42,609.376 655.5,600C 632.319,580.314 609.985,559.814 588.5,538.5 Z"/></g>
<g><path style="opacity:1" fill="#3e44a9" d="M 387.5,346.5 C 388.552,346.351 389.552,346.517 390.5,347C 446.854,400.022 503.188,453.022 559.5,506C 503.878,565.291 447.878,624.291 391.5,683C 390.207,683.49 388.873,683.657 387.5,683.5C 387.5,571.167 387.5,458.833 387.5,346.5 Z M 390.5,352.5 C 390.333,460.834 390.5,569.167 391,677.5C 445.322,620.678 499.488,563.678 553.5,506.5C 499.609,454.74 445.276,403.407 390.5,352.5 Z"/></g>
<g><path style="opacity:1" fill="#4b57c8" d="M 646.5,276.5 C 546.668,275.501 446.668,275.167 346.5,275.5C 346.5,433.833 346.5,592.167 346.5,750.5C 345.5,592.001 345.167,433.334 345.5,274.5C 446.169,274.167 546.836,274.5 647.5,275.5C 647.376,276.107 647.043,276.44 646.5,276.5 Z"/></g>
<g><path style="opacity:1" fill="#3e45a9" d="M 587.5,533.5 C 589.905,534.687 592.239,536.187 594.5,538C 614.932,558.771 636.266,578.437 658.5,597C 680.638,610.261 702.305,609.594 723.5,595C 745.134,575.701 766.467,556.035 787.5,536C 788.5,535.333 789.5,535.333 790.5,536C 846.38,593.379 901.714,651.212 956.5,709.5C 956.291,710.086 955.957,710.586 955.5,711C 778.167,711.667 600.833,711.667 423.5,711C 422.446,709.612 422.28,708.112 423,706.5C 478.037,648.964 532.871,591.298 587.5,533.5 Z M 588.5,538.5 C 535.482,594.692 482.149,650.859 428.5,707C 602.167,707.667 775.833,707.667 949.5,707C 895.972,651.473 842.472,595.973 789,540.5C 767.167,560.333 745.333,580.167 723.5,600C 718.089,603.246 712.423,605.913 706.5,608C 688.42,612.043 671.42,609.376 655.5,600C 632.319,580.314 609.985,559.814 588.5,538.5 Z"/></g>
<g><path style="opacity:1" fill="#070821" d="M 1295.5,866.5 C 1319.55,865.342 1342.88,868.842 1365.5,877C 1370.66,879.412 1375.66,882.079 1380.5,885C 1381.06,885.725 1381.39,886.558 1381.5,887.5C 1377.56,897.659 1373.22,907.659 1368.5,917.5C 1367.67,917.833 1366.83,918.167 1366,918.5C 1345.42,905.73 1322.92,900.23 1298.5,902C 1286.01,902.661 1275.51,907.495 1267,916.5C 1261.93,923.423 1261.27,930.757 1265,938.5C 1272.09,948.299 1281.59,954.466 1293.5,957C 1314.6,960.701 1335.27,966.034 1355.5,973C 1387.36,988.525 1397.86,1013.36 1387,1047.5C 1374.06,1069.91 1354.56,1082.74 1328.5,1086C 1306.39,1088.45 1284.39,1087.79 1262.5,1084C 1245.77,1080.47 1230.77,1073.47 1217.5,1063C 1216.92,1062.11 1216.59,1061.11 1216.5,1060C 1220.25,1050.34 1224.41,1040.84 1229,1031.5C 1230,1030.83 1231,1030.17 1232,1029.5C 1253.01,1044.4 1276.51,1052.74 1302.5,1054.5C 1318.8,1055.12 1333.13,1050.29 1345.5,1040C 1351.73,1026.98 1349.06,1015.98 1337.5,1007C 1330.99,1003.94 1324.33,1001.28 1317.5,999C 1300.46,995.158 1283.46,991.158 1266.5,987C 1233.57,976.684 1218.41,954.184 1221,919.5C 1225.55,900.283 1236.72,886.45 1254.5,878C 1267.63,871.804 1281.3,867.971 1295.5,866.5 Z"/></g>
<g><path style="opacity:1" fill="#070921" d="M 226.5,868.5 C 228.011,870.476 228.844,872.809 229,875.5C 229.5,944.833 229.667,1014.17 229.5,1083.5C 216.185,1084.33 202.851,1084.67 189.5,1084.5C 189.219,1053.82 188.552,1023.16 187.5,992.5C 151.173,991.457 114.84,991.29 78.5,992C 77.9644,1022.13 77.1311,1052.3 76,1082.5C 63.2421,1083.66 50.4088,1083.82 37.5,1083C 36.8221,1012.22 36.1555,941.382 35.5,870.5C 42.3222,870.047 49.1555,869.714 56,869.5C 62.7976,869.369 69.4643,870.036 76,871.5C 76.5285,888.504 76.3619,905.504 75.5,922.5C 75.6349,934.531 76.3016,946.531 77.5,958.5C 114.448,956.891 151.448,956.224 188.5,956.5C 187.661,928.17 187.494,899.837 188,871.5C 200.762,869.854 213.596,868.854 226.5,868.5 Z"/></g>
<g><path style="opacity:1" fill="#070821" d="M 930.5,868.5 C 941.03,869.801 951.53,869.801 962,868.5C 962.667,869.167 963.333,869.833 964,870.5C 965.962,928.837 965.795,987.17 963.5,1045.5C 965.113,1058.11 964.779,1070.61 962.5,1083C 950.171,1083.5 937.838,1083.67 925.5,1083.5C 925.833,1037.5 925.5,991.495 924.5,945.5C 922.541,946.748 921.041,948.415 920,950.5C 899.055,984.051 879.389,1018.38 861,1053.5C 859.118,1056.62 856.785,1059.29 854,1061.5C 847.667,1060.83 841.333,1060.17 835,1059.5C 811.746,1024.67 789.746,989.004 769,952.5C 768,951.5 767,950.5 766,949.5C 764.531,994.466 764.031,1039.47 764.5,1084.5C 751.5,1084.5 738.5,1084.5 725.5,1084.5C 726.564,1013.84 726.731,943.169 726,872.5C 726.5,872 727,871.5 727.5,871C 738.167,870.333 748.833,870.333 759.5,871C 761,872.5 762.5,874 764,875.5C 791.183,919.868 817.85,964.535 844,1009.5C 870.064,967.096 895.731,924.429 921,881.5C 923.687,876.782 926.854,872.449 930.5,868.5 Z"/></g>
<g><path style="opacity:1" fill="#070821" d="M 289.5,869.5 C 341.071,869.249 392.738,869.749 444.5,871C 445,871.5 445.5,872 446,872.5C 446.5,882.828 446.666,893.161 446.5,903.5C 407.189,902.917 367.856,902.917 328.5,903.5C 327.648,921.819 327.315,940.153 327.5,958.5C 354.155,959.249 380.822,959.749 407.5,960C 415.909,960.093 424.243,960.76 432.5,962C 432.453,971.338 432.453,980.671 432.5,990C 431.377,991.044 430.044,991.71 428.5,992C 394.839,992.942 361.173,993.442 327.5,993.5C 327.5,1012.5 327.5,1031.5 327.5,1050.5C 369.171,1051.58 410.837,1051.25 452.5,1049.5C 452.593,1060.85 452.259,1072.18 451.5,1083.5C 399.834,1084.2 348.168,1084.36 296.5,1084C 292.972,1083.91 289.638,1083.24 286.5,1082C 287.233,1046.9 287.9,1011.73 288.5,976.5C 287.546,941.551 287.213,906.717 287.5,872C 288.381,871.292 289.047,870.458 289.5,869.5 Z"/></g>
<g><path style="opacity:1" fill="#070821" d="M 1024.5,869.5 C 1076.82,869.606 1129.16,869.606 1181.5,869.5C 1182.32,880.158 1182.48,890.825 1182,901.5C 1181.5,902 1181,902.5 1180.5,903C 1141.49,903.696 1102.49,903.529 1063.5,902.5C 1062.55,921.139 1062.22,939.806 1062.5,958.5C 1097.49,959.231 1132.49,959.731 1167.5,960C 1168.16,965.254 1168.49,970.588 1168.5,976C 1168.47,981.58 1167.81,986.914 1166.5,992C 1132.17,992.5 1097.83,992.667 1063.5,992.5C 1063.5,1011.5 1063.5,1030.5 1063.5,1049.5C 1104.74,1049.94 1145.9,1050.6 1187,1051.5C 1187.19,1061.55 1187.69,1071.55 1188.5,1081.5C 1187.91,1082.8 1186.91,1083.63 1185.5,1084C 1131.26,1084.83 1077.1,1084.66 1023,1083.5C 1022.14,1012.09 1022.64,940.758 1024.5,869.5 Z"/></g>
<g><path style="opacity:1" fill="#070821" d="M 499.5,870.5 C 535.085,870.428 570.751,870.594 606.5,871C 636.186,873.079 658.353,886.912 673,912.5C 683.761,941.328 680.428,968.328 663,993.5C 654.815,1001.67 645.649,1008.51 635.5,1014C 651.035,1034.9 666.201,1056.07 681,1077.5C 681.495,1079.47 681.662,1081.47 681.5,1083.5C 666.456,1084.14 651.456,1084.14 636.5,1083.5C 625.528,1067.36 614.361,1051.36 603,1035.5C 599.414,1030.16 595.248,1025.33 590.5,1021C 573.17,1020.5 555.837,1020.33 538.5,1020.5C 538.09,1041.54 537.424,1062.54 536.5,1083.5C 523.517,1084.5 510.517,1084.83 497.5,1084.5C 496.193,1013.84 496.36,943.172 498,872.5C 498.717,871.956 499.217,871.289 499.5,870.5 Z M 538.5,904.5 C 557.836,904.333 577.17,904.5 596.5,905C 620.671,908.508 635.005,922.174 639.5,946C 637.006,964.003 627.339,976.337 610.5,983C 605.946,984.741 601.279,986.074 596.5,987C 577.17,987.5 557.836,987.667 538.5,987.5C 537.665,959.861 537.665,932.194 538.5,904.5 Z"/></g>
<g><path style="opacity:1" fill="#1e3156" d="M 1294.5,870.5 C 1318.63,868.953 1341.96,872.453 1364.5,881C 1369.16,882.995 1373.49,885.495 1377.5,888.5C 1373.83,897.171 1369.66,905.504 1365,913.5C 1338.47,897.975 1310.31,894.142 1280.5,902C 1267.59,906.565 1260.26,915.565 1258.5,929C 1260.2,940.036 1265.87,948.37 1275.5,954C 1280.17,956 1284.83,958 1289.5,960C 1303.37,963.641 1317.37,966.641 1331.5,969C 1345.93,972.133 1358.93,978.133 1370.5,987C 1388.69,1004.73 1392.52,1025.23 1382,1048.5C 1373.87,1061.29 1362.7,1070.46 1348.5,1076C 1339.78,1079.43 1330.78,1081.76 1321.5,1083C 1294.72,1086.17 1268.72,1083.17 1243.5,1074C 1235.59,1070.13 1228.09,1065.63 1221,1060.5C 1224.18,1051.8 1227.68,1043.13 1231.5,1034.5C 1243.8,1041.89 1256.8,1048.06 1270.5,1053C 1287.93,1057.75 1305.59,1058.75 1323.5,1056C 1334.92,1053.55 1344.09,1047.72 1351,1038.5C 1355.36,1025.25 1352.19,1014.08 1341.5,1005C 1335.7,1001.95 1329.7,999.286 1323.5,997C 1305.59,992.355 1287.59,988.021 1269.5,984C 1236.89,974.297 1222.06,952.463 1225,918.5C 1231.2,899.961 1243.37,886.795 1261.5,879C 1272.23,874.666 1283.23,871.833 1294.5,870.5 Z"/></g>
<g><path style="opacity:1" fill="#1e3156" d="M 306.5,872.5 C 351.859,872.329 397.192,872.996 442.5,874.5C 442.5,882.833 442.5,891.167 442.5,899.5C 405.832,899.333 369.165,899.5 332.5,900C 329.905,900.226 327.405,900.726 325,901.5C 323.569,921.726 323.402,941.893 324.5,962C 359.154,963.278 393.821,963.778 428.5,963.5C 428.5,971.833 428.5,980.167 428.5,988.5C 394.118,988.964 359.785,989.797 325.5,991C 324.34,1011.76 324.174,1032.59 325,1053.5C 366.111,1054.8 407.278,1054.8 448.5,1053.5C 448.5,1062.5 448.5,1071.5 448.5,1080.5C 395.833,1080.5 343.167,1080.5 290.5,1080.5C 291.47,1011.51 291.803,942.511 291.5,873.5C 296.695,873.821 301.695,873.487 306.5,872.5 Z"/></g>
<g><path style="opacity:1" fill="#0f1a38" d="M 956.5,873.5 C 947.235,872.905 938.235,873.572 929.5,875.5C 929.5,874.5 929.5,873.5 929.5,872.5C 938.682,872.173 947.682,872.507 956.5,873.5 Z"/></g>
<g><path style="opacity:1" fill="#1e3156" d="M 42.5,873.5 C 52.5,873.5 62.5,873.5 72.5,873.5C 72.5,890.833 72.5,908.167 72.5,925.5C 72.3335,936.172 72.5002,946.839 73,957.5C 73.3095,958.766 73.8095,959.933 74.5,961C 113.509,961.094 152.509,960.427 191.5,959C 191.755,930.577 191.755,902.077 191.5,873.5C 202.833,873.5 214.167,873.5 225.5,873.5C 225.5,919.167 225.5,964.833 225.5,1010.5C 225.5,1033.83 225.5,1057.17 225.5,1080.5C 214.116,1081.14 203.116,1080.48 192.5,1078.5C 192.558,1048.83 192.225,1019.16 191.5,989.5C 152.85,987.116 114.183,986.949 75.5,989C 74.6198,990.356 74.2865,991.856 74.5,993.5C 73.502,1022 73.1687,1050.66 73.5,1079.5C 62.1667,1079.5 50.8333,1079.5 39.5,1079.5C 39.5,1075.83 39.5,1072.17 39.5,1068.5C 40.8212,1003.5 40.8212,938.499 39.5,873.5C 40.5,873.5 41.5,873.5 42.5,873.5 Z"/></g>
<g><path style="opacity:1" fill="#1e3156" d="M 956.5,873.5 C 958.144,873.286 959.644,873.62 961,874.5C 961.45,941.168 961.283,1007.83 960.5,1074.5C 959.549,1075.92 959.216,1077.59 959.5,1079.5C 956.941,1079.2 954.607,1079.53 952.5,1080.5C 944.5,1080.5 936.5,1080.5 928.5,1080.5C 928.667,1034.5 928.5,988.499 928,942.5C 925.207,940.011 922.54,940.345 920,943.5C 897.046,979.964 875.546,1017.3 855.5,1055.5C 849.925,1056.45 844.259,1056.79 838.5,1056.5C 815.189,1022.57 793.356,987.573 773,951.5C 770.445,947.688 767.445,944.355 764,941.5C 763.055,941.905 762.388,942.572 762,943.5C 760.588,989.151 760.088,1034.82 760.5,1080.5C 750.167,1080.5 739.833,1080.5 729.5,1080.5C 729.5,1078.17 729.5,1075.83 729.5,1073.5C 730.606,1007.17 730.606,940.84 729.5,874.5C 738.839,874.334 748.173,874.5 757.5,875C 758.5,875.833 759.5,876.667 760.5,877.5C 787.17,920.835 813.337,964.502 839,1008.5C 843.344,1015.26 847.344,1014.93 851,1007.5C 876.926,963.307 903.093,919.307 929.5,875.5C 938.235,873.572 947.235,872.905 956.5,873.5 Z"/></g>
<g><path style="opacity:1" fill="#1e3156" d="M 1183.5,1054.5 C 1183.5,1063.17 1183.5,1071.83 1183.5,1080.5C 1131.83,1080.5 1080.17,1080.5 1028.5,1080.5C 1027.5,1080.5 1026.5,1080.5 1025.5,1080.5C 1026.37,1011.5 1026.7,942.504 1026.5,873.5C 1077.16,872.306 1127.83,872.306 1178.5,873.5C 1178.5,882.167 1178.5,890.833 1178.5,899.5C 1138.93,899.17 1099.43,899.503 1060,900.5C 1059.17,921.073 1059.34,941.573 1060.5,962C 1095.15,963.254 1129.82,963.754 1164.5,963.5C 1164.5,971.833 1164.5,980.167 1164.5,988.5C 1130.52,989.475 1096.52,989.642 1062.5,989C 1060.93,991.93 1060.1,995.097 1060,998.5C 1059.33,1016.17 1059.33,1033.83 1060,1051.5C 1060.75,1052.13 1061.58,1052.63 1062.5,1053C 1103,1053.17 1143.34,1053.67 1183.5,1054.5 Z"/></g>
<g><path style="opacity:1" fill="#1e3156" d="M 507.5,874.5 C 540.835,874.333 574.168,874.5 607.5,875C 643.029,878.485 665.529,897.319 675,931.5C 679.637,968.741 665.137,995.241 631.5,1011C 630.978,1011.56 630.645,1012.23 630.5,1013C 645.951,1034.73 661.284,1056.56 676.5,1078.5C 675.975,1079.19 675.308,1079.69 674.5,1080C 662.486,1080.83 650.486,1080.67 638.5,1079.5C 624.466,1058.3 609.466,1037.8 593.5,1018C 583.723,1016.89 573.89,1016.39 564,1016.5C 555.5,1016.67 547,1016.83 538.5,1017C 536.939,1017.32 535.772,1018.15 535,1019.5C 533.963,1039.82 533.463,1060.15 533.5,1080.5C 522.5,1080.5 511.5,1080.5 500.5,1080.5C 500.5,1023.17 500.5,965.833 500.5,908.5C 501.495,897.679 501.828,886.679 501.5,875.5C 503.735,875.795 505.735,875.461 507.5,874.5 Z M 538.5,904.5 C 537.665,932.194 537.665,959.861 538.5,987.5C 557.836,987.667 577.17,987.5 596.5,987C 601.279,986.074 605.946,984.741 610.5,983C 627.339,976.337 637.006,964.003 639.5,946C 635.005,922.174 620.671,908.508 596.5,905C 577.17,904.5 557.836,904.333 538.5,904.5 Z"/></g>
<g><path style="opacity:1" fill="#0e1735" d="M 507.5,874.5 C 505.735,875.461 503.735,875.795 501.5,875.5C 501.828,886.679 501.495,897.679 500.5,908.5C 500.5,897.167 500.5,885.833 500.5,874.5C 502.833,874.5 505.167,874.5 507.5,874.5 Z"/></g>
<g><path style="opacity:1" fill="#060c25" d="M 42.5,873.5 C 52.6532,872.506 62.9865,872.172 73.5,872.5C 73.8301,890.341 73.4967,908.008 72.5,925.5C 72.5,908.167 72.5,890.833 72.5,873.5C 62.5,873.5 52.5,873.5 42.5,873.5 Z"/></g>
<g><path style="opacity:1" fill="#060720" d="M 535.5,901.5 C 557.836,901.333 580.169,901.5 602.5,902C 623.079,906.248 636.245,918.415 642,938.5C 644.155,961.362 634.655,977.195 613.5,986C 609.227,987.535 604.894,988.869 600.5,990C 578.863,991.573 557.197,991.906 535.5,991C 534.218,961.224 534.218,931.391 535.5,901.5 Z M 538.5,904.5 C 537.665,932.194 537.665,959.861 538.5,987.5C 557.836,987.667 577.17,987.5 596.5,987C 601.279,986.074 605.946,984.741 610.5,983C 627.339,976.337 637.006,964.003 639.5,946C 635.005,922.174 620.671,908.508 596.5,905C 577.17,904.5 557.836,904.333 538.5,904.5 Z"/></g>
<g><path style="opacity:1" fill="#0f1b38" d="M 855.5,1055.5 C 853.085,1056.81 850.252,1057.48 847,1057.5C 843.979,1057.5 841.146,1057.16 838.5,1056.5C 844.259,1056.79 849.925,1056.45 855.5,1055.5 Z"/></g>
<g><path style="opacity:1" fill="#070d27" d="M 225.5,1010.5 C 226.498,1033.99 226.831,1057.66 226.5,1081.5C 214.833,1081.5 203.167,1081.5 191.5,1081.5C 191.263,1080.21 191.596,1079.21 192.5,1078.5C 203.116,1080.48 214.116,1081.14 225.5,1080.5C 225.5,1057.17 225.5,1033.83 225.5,1010.5 Z"/></g>
<g><path style="opacity:1" fill="#090f2a" d="M 74.5,993.5 C 74.5,1022.5 74.5,1051.5 74.5,1080.5C 62.5,1080.5 50.5,1080.5 38.5,1080.5C 38.1832,1076.3 38.5166,1072.3 39.5,1068.5C 39.5,1072.17 39.5,1075.83 39.5,1079.5C 50.8333,1079.5 62.1667,1079.5 73.5,1079.5C 73.1687,1050.66 73.502,1022 74.5,993.5 Z"/></g>
<g><path style="opacity:1" fill="#121f3e" d="M 960.5,1074.5 C 960.5,1076.5 960.5,1078.5 960.5,1080.5C 957.833,1080.5 955.167,1080.5 952.5,1080.5C 954.607,1079.53 956.941,1079.2 959.5,1079.5C 959.216,1077.59 959.549,1075.92 960.5,1074.5 Z"/></g>
<g><path style="opacity:1" fill="#0c1332" d="M 729.5,1073.5 C 729.5,1075.83 729.5,1078.17 729.5,1080.5C 739.833,1080.5 750.167,1080.5 760.5,1080.5C 750.013,1081.49 739.346,1081.83 728.5,1081.5C 728.194,1078.61 728.527,1075.95 729.5,1073.5 Z"/></g>
<g><path style="opacity:1" fill="#0e1836" d="M 1183.5,1054.5 C 1184.49,1063.32 1184.83,1072.32 1184.5,1081.5C 1132.33,1081.83 1080.33,1081.5 1028.5,1080.5C 1080.17,1080.5 1131.83,1080.5 1183.5,1080.5C 1183.5,1071.83 1183.5,1063.17 1183.5,1054.5 Z"/></g>
</svg>
