<?xml version="1.0" encoding="UTF-8"?>
<!DOCTYPE svg PUBLIC "-//W3C//DTD SVG 1.1//EN" "http://www.w3.org/Graphics/SVG/1.1/DTD/svg11.dtd">
<svg xmlns="http://www.w3.org/2000/svg" version="1.1" width="1419px" height="298px" style="shape-rendering:geometricPrecision; text-rendering:geometricPrecision; image-rendering:optimizeQuality; fill-rule:evenodd; clip-rule:evenodd" xmlns:xlink="http://www.w3.org/1999/xlink">
<g><path style="opacity:1" fill="#070821" d="M 1295.5,41.5 C 1319.55,40.342 1342.88,43.842 1365.5,52C 1370.66,54.4121 1375.66,57.0788 1380.5,60C 1381.06,60.7247 1381.39,61.5581 1381.5,62.5C 1377.56,72.6592 1373.22,82.6592 1368.5,92.5C 1367.67,92.8333 1366.83,93.1667 1366,93.5C 1345.42,80.7298 1322.92,75.2298 1298.5,77C 1286.01,77.6613 1275.51,82.4947 1267,91.5C 1261.93,98.4233 1261.27,105.757 1265,113.5C 1272.09,123.299 1281.59,129.466 1293.5,132C 1314.6,135.701 1335.27,141.034 1355.5,148C 1387.36,163.525 1397.86,188.359 1387,222.5C 1374.06,244.911 1354.56,257.745 1328.5,261C 1306.39,263.454 1284.39,262.787 1262.5,259C 1245.77,255.466 1230.77,248.466 1217.5,238C 1216.92,237.107 1216.59,236.107 1216.5,235C 1220.25,225.336 1224.41,215.836 1229,206.5C 1230,205.833 1231,205.167 1232,204.5C 1253.01,219.403 1276.51,227.736 1302.5,229.5C 1318.8,230.123 1333.13,225.289 1345.5,215C 1351.73,201.982 1349.06,190.982 1337.5,182C 1330.99,178.942 1324.33,176.275 1317.5,174C 1300.46,170.158 1283.46,166.158 1266.5,162C 1233.57,151.684 1218.41,129.184 1221,94.5C 1225.55,75.2834 1236.72,61.45 1254.5,53C 1267.63,46.8043 1281.3,42.9709 1295.5,41.5 Z"/></g>
<g><path style="opacity:1" fill="#070821" d="M 226.5,43.5 C 228.011,45.4758 228.844,47.8091 229,50.5C 229.5,119.833 229.667,189.166 229.5,258.5C 216.185,259.333 202.851,259.666 189.5,259.5C 189.219,228.824 188.552,198.157 187.5,167.5C 151.173,166.457 114.84,166.29 78.5,167C 77.9644,197.135 77.1311,227.301 76,257.5C 63.2421,258.655 50.4088,258.822 37.5,258C 36.8221,187.215 36.1555,116.382 35.5,45.5C 42.3222,45.0471 49.1555,44.7137 56,44.5C 62.7976,44.3689 69.4643,45.0355 76,46.5C 76.5285,63.5038 76.3619,80.5038 75.5,97.5C 75.6349,109.531 76.3016,121.531 77.5,133.5C 114.448,131.891 151.448,131.224 188.5,131.5C 187.661,103.17 187.494,74.8368 188,46.5C 200.762,44.8541 213.596,43.8541 226.5,43.5 Z"/></g>
<g><path style="opacity:1" fill="#070821" d="M 930.5,43.5 C 941.03,44.8009 951.53,44.8009 962,43.5C 962.667,44.1667 963.333,44.8333 964,45.5C 965.962,103.837 965.795,162.17 963.5,220.5C 965.113,233.109 964.779,245.609 962.5,258C 950.171,258.5 937.838,258.667 925.5,258.5C 925.833,212.495 925.5,166.495 924.5,120.5C 922.541,121.748 921.041,123.415 920,125.5C 899.055,159.051 879.389,193.384 861,228.5C 859.118,231.623 856.785,234.289 854,236.5C 847.667,235.833 841.333,235.167 835,234.5C 811.746,199.67 789.746,164.004 769,127.5C 768,126.5 767,125.5 766,124.5C 764.531,169.466 764.031,214.466 764.5,259.5C 751.5,259.5 738.5,259.5 725.5,259.5C 726.564,188.836 726.731,118.169 726,47.5C 726.5,47 727,46.5 727.5,46C 738.167,45.3333 748.833,45.3333 759.5,46C 761,47.5 762.5,49 764,50.5C 791.183,94.8682 817.85,139.535 844,184.5C 870.064,142.096 895.731,99.429 921,56.5C 923.687,51.7823 926.854,47.449 930.5,43.5 Z"/></g>
<g><path style="opacity:1" fill="#070821" d="M 289.5,44.5 C 341.071,44.2491 392.738,44.7491 444.5,46C 445,46.5 445.5,47 446,47.5C 446.5,57.828 446.666,68.1613 446.5,78.5C 407.189,77.9173 367.856,77.9173 328.5,78.5C 327.648,96.8193 327.315,115.153 327.5,133.5C 354.155,134.249 380.822,134.749 407.5,135C 415.909,135.093 424.243,135.76 432.5,137C 432.453,146.338 432.453,155.671 432.5,165C 431.377,166.044 430.044,166.71 428.5,167C 394.839,167.942 361.173,168.442 327.5,168.5C 327.5,187.5 327.5,206.5 327.5,225.5C 369.171,226.579 410.837,226.246 452.5,224.5C 452.593,235.85 452.259,247.183 451.5,258.5C 399.834,259.198 348.168,259.364 296.5,259C 292.972,258.911 289.638,258.244 286.5,257C 287.233,221.899 287.9,186.732 288.5,151.5C 287.546,116.551 287.213,81.7172 287.5,47C 288.381,46.2917 289.047,45.4584 289.5,44.5 Z"/></g>
<g><path style="opacity:1" fill="#070821" d="M 1024.5,44.5 C 1076.82,44.606 1129.16,44.606 1181.5,44.5C 1182.32,55.1582 1182.48,65.8249 1182,76.5C 1181.5,77 1181,77.5 1180.5,78C 1141.49,78.6958 1102.49,78.5291 1063.5,77.5C 1062.55,96.1393 1062.22,114.806 1062.5,133.5C 1097.49,134.231 1132.49,134.731 1167.5,135C 1168.16,140.254 1168.49,145.588 1168.5,151C 1168.47,156.58 1167.81,161.914 1166.5,167C 1132.17,167.5 1097.83,167.667 1063.5,167.5C 1063.5,186.5 1063.5,205.5 1063.5,224.5C 1104.74,224.936 1145.9,225.603 1187,226.5C 1187.19,236.547 1187.69,246.547 1188.5,256.5C 1187.91,257.799 1186.91,258.632 1185.5,259C 1131.26,259.831 1077.1,259.664 1023,258.5C 1022.14,187.091 1022.64,115.758 1024.5,44.5 Z"/></g>
<g><path style="opacity:1" fill="#070821" d="M 499.5,45.5 C 535.085,45.4277 570.751,45.5943 606.5,46C 636.186,48.0786 658.353,61.9119 673,87.5C 683.761,116.328 680.428,143.328 663,168.5C 654.815,176.673 645.649,183.506 635.5,189C 651.035,209.902 666.201,231.069 681,252.5C 681.495,254.473 681.662,256.473 681.5,258.5C 666.456,259.142 651.456,259.142 636.5,258.5C 625.528,242.362 614.361,226.362 603,210.5C 599.414,205.16 595.248,200.327 590.5,196C 573.17,195.5 555.837,195.333 538.5,195.5C 538.09,216.54 537.424,237.54 536.5,258.5C 523.517,259.499 510.517,259.832 497.5,259.5C 496.193,188.839 496.36,118.172 498,47.5C 498.717,46.9558 499.217,46.2891 499.5,45.5 Z M 538.5,79.5 C 557.836,79.3334 577.17,79.5 596.5,80C 620.671,83.5076 635.005,97.1743 639.5,121C 637.006,139.003 627.339,151.337 610.5,158C 605.946,159.741 601.279,161.074 596.5,162C 577.17,162.5 557.836,162.667 538.5,162.5C 537.665,134.861 537.665,107.194 538.5,79.5 Z"/></g>
<g><path style="opacity:1" fill="#1e3156" d="M 1294.5,45.5 C 1318.63,43.9528 1341.96,47.4528 1364.5,56C 1369.16,57.9947 1373.49,60.4947 1377.5,63.5C 1373.83,72.1709 1369.66,80.5042 1365,88.5C 1338.47,72.9749 1310.31,69.1416 1280.5,77C 1267.59,81.5653 1260.26,90.5653 1258.5,104C 1260.2,115.036 1265.87,123.37 1275.5,129C 1280.17,131 1284.83,133 1289.5,135C 1303.37,138.641 1317.37,141.641 1331.5,144C 1345.93,147.133 1358.93,153.133 1370.5,162C 1388.69,179.728 1392.52,200.228 1382,223.5C 1373.87,236.293 1362.7,245.459 1348.5,251C 1339.78,254.43 1330.78,256.763 1321.5,258C 1294.72,261.167 1268.72,258.167 1243.5,249C 1235.59,245.129 1228.09,240.629 1221,235.5C 1224.18,226.799 1227.68,218.132 1231.5,209.5C 1243.8,216.892 1256.8,223.058 1270.5,228C 1287.93,232.748 1305.59,233.748 1323.5,231C 1334.92,228.549 1344.09,222.716 1351,213.5C 1355.36,200.245 1352.19,189.079 1341.5,180C 1335.7,176.953 1329.7,174.286 1323.5,172C 1305.59,167.355 1287.59,163.021 1269.5,159C 1236.89,149.297 1222.06,127.463 1225,93.5C 1231.2,74.9613 1243.37,61.7946 1261.5,54C 1272.23,49.6661 1283.23,46.8328 1294.5,45.5 Z"/></g>
<g><path style="opacity:1" fill="#1e3156" d="M 306.5,47.5 C 351.859,47.3294 397.192,47.996 442.5,49.5C 442.5,57.8333 442.5,66.1667 442.5,74.5C 405.832,74.3333 369.165,74.5 332.5,75C 329.905,75.2256 327.405,75.7256 325,76.5C 323.569,96.726 323.402,116.893 324.5,137C 359.154,138.278 393.821,138.778 428.5,138.5C 428.5,146.833 428.5,155.167 428.5,163.5C 394.118,163.964 359.785,164.797 325.5,166C 324.34,186.76 324.174,207.594 325,228.5C 366.111,229.803 407.278,229.803 448.5,228.5C 448.5,237.5 448.5,246.5 448.5,255.5C 395.833,255.5 343.167,255.5 290.5,255.5C 291.47,186.511 291.803,117.511 291.5,48.5C 296.695,48.8205 301.695,48.4872 306.5,47.5 Z"/></g>
<g><path style="opacity:1" fill="#0f1a38" d="M 956.5,48.5 C 947.235,47.9054 938.235,48.5721 929.5,50.5C 929.5,49.5 929.5,48.5 929.5,47.5C 938.682,47.1734 947.682,47.5067 956.5,48.5 Z"/></g>
<g><path style="opacity:1" fill="#1e3156" d="M 42.5,48.5 C 52.5,48.5 62.5,48.5 72.5,48.5C 72.5,65.8333 72.5,83.1667 72.5,100.5C 72.3335,111.172 72.5002,121.839 73,132.5C 73.3095,133.766 73.8095,134.933 74.5,136C 113.509,136.094 152.509,135.427 191.5,134C 190.762,105.566 190.762,77.0659 191.5,48.5C 202.833,48.5 214.167,48.5 225.5,48.5C 225.5,94.1667 225.5,139.833 225.5,185.5C 225.5,208.833 225.5,232.167 225.5,255.5C 214.116,256.144 203.116,255.477 192.5,253.5C 192.558,223.828 192.225,194.161 191.5,164.5C 152.85,162.116 114.183,161.949 75.5,164C 74.6198,165.356 74.2865,166.856 74.5,168.5C 73.502,196.995 73.1687,225.662 73.5,254.5C 62.1667,254.5 50.8333,254.5 39.5,254.5C 39.5,250.833 39.5,247.167 39.5,243.5C 40.8212,178.499 40.8212,113.499 39.5,48.5C 40.5,48.5 41.5,48.5 42.5,48.5 Z"/></g>
<g><path style="opacity:1" fill="#1e3156" d="M 956.5,48.5 C 958.144,48.2865 959.644,48.6198 961,49.5C 961.45,116.168 961.283,182.834 960.5,249.5C 959.549,250.919 959.216,252.585 959.5,254.5C 956.941,254.198 954.607,254.532 952.5,255.5C 944.5,255.5 936.5,255.5 928.5,255.5C 928.667,209.499 928.5,163.499 928,117.5C 925.207,115.011 922.54,115.345 920,118.5C 897.046,154.964 875.546,192.297 855.5,230.5C 849.925,231.452 844.259,231.786 838.5,231.5C 815.189,197.573 793.356,162.573 773,126.5C 770.445,122.688 767.445,119.355 764,116.5C 763.055,116.905 762.388,117.572 762,118.5C 760.588,164.151 760.088,209.817 760.5,255.5C 750.167,255.5 739.833,255.5 729.5,255.5C 729.5,253.167 729.5,250.833 729.5,248.5C 730.606,182.173 730.606,115.84 729.5,49.5C 738.839,49.3335 748.173,49.5002 757.5,50C 758.5,50.8333 759.5,51.6667 760.5,52.5C 787.17,95.8354 813.337,139.502 839,183.5C 843.344,190.264 847.344,189.931 851,182.5C 876.926,138.307 903.093,94.3071 929.5,50.5C 938.235,48.5721 947.235,47.9054 956.5,48.5 Z"/></g>
<g><path style="opacity:1" fill="#1e3156" d="M 1183.5,229.5 C 1183.5,238.167 1183.5,246.833 1183.5,255.5C 1131.83,255.5 1080.17,255.5 1028.5,255.5C 1027.5,255.5 1026.5,255.5 1025.5,255.5C 1026.37,186.504 1026.7,117.504 1026.5,48.5C 1077.16,47.3062 1127.83,47.3062 1178.5,48.5C 1178.5,57.1667 1178.5,65.8333 1178.5,74.5C 1138.93,74.1701 1099.43,74.5034 1060,75.5C 1059.17,96.0731 1059.34,116.573 1060.5,137C 1095.15,138.254 1129.82,138.754 1164.5,138.5C 1164.5,146.833 1164.5,155.167 1164.5,163.5C 1130.52,164.475 1096.52,164.642 1062.5,164C 1060.93,166.93 1060.1,170.097 1060,173.5C 1059.33,191.167 1059.33,208.833 1060,226.5C 1060.75,227.126 1061.58,227.626 1062.5,228C 1103,228.167 1143.34,228.667 1183.5,229.5 Z"/></g>
<g><path style="opacity:1" fill="#1e3156" d="M 507.5,49.5 C 540.835,49.3333 574.168,49.5 607.5,50C 643.029,53.4852 665.529,72.3185 675,106.5C 679.637,143.741 665.137,170.241 631.5,186C 630.978,186.561 630.645,187.228 630.5,188C 645.951,209.729 661.284,231.562 676.5,253.5C 675.975,254.192 675.308,254.692 674.5,255C 662.486,255.833 650.486,255.666 638.5,254.5C 624.466,233.298 609.466,212.798 593.5,193C 583.723,191.886 573.89,191.386 564,191.5C 555.5,191.667 547,191.833 538.5,192C 536.939,192.318 535.772,193.151 535,194.5C 533.963,214.821 533.463,235.154 533.5,255.5C 522.5,255.5 511.5,255.5 500.5,255.5C 500.5,198.167 500.5,140.833 500.5,83.5C 501.495,72.6794 501.828,61.6794 501.5,50.5C 503.735,50.7947 505.735,50.4614 507.5,49.5 Z M 538.5,79.5 C 537.665,107.194 537.665,134.861 538.5,162.5C 557.836,162.667 577.17,162.5 596.5,162C 601.279,161.074 605.946,159.741 610.5,158C 627.339,151.337 637.006,139.003 639.5,121C 635.005,97.1743 620.671,83.5076 596.5,80C 577.17,79.5 557.836,79.3334 538.5,79.5 Z"/></g>
<g><path style="opacity:1" fill="#0e1735" d="M 507.5,49.5 C 505.735,50.4614 503.735,50.7947 501.5,50.5C 501.828,61.6794 501.495,72.6794 500.5,83.5C 500.5,72.1667 500.5,60.8333 500.5,49.5C 502.833,49.5 505.167,49.5 507.5,49.5 Z"/></g>
<g><path style="opacity:1" fill="#060c25" d="M 42.5,48.5 C 52.6532,47.5058 62.9865,47.1724 73.5,47.5C 73.8301,65.3412 73.4967,83.0079 72.5,100.5C 72.5,83.1667 72.5,65.8333 72.5,48.5C 62.5,48.5 52.5,48.5 42.5,48.5 Z"/></g>
<g><path style="opacity:1" fill="#060720" d="M 535.5,76.5 C 557.836,76.3334 580.169,76.5 602.5,77C 623.079,81.2485 636.245,93.4151 642,113.5C 644.155,136.362 634.655,152.195 613.5,161C 609.227,162.535 604.894,163.869 600.5,165C 578.863,166.573 557.197,166.906 535.5,166C 534.218,136.224 534.218,106.391 535.5,76.5 Z M 538.5,79.5 C 537.665,107.194 537.665,134.861 538.5,162.5C 557.836,162.667 577.17,162.5 596.5,162C 601.279,161.074 605.946,159.741 610.5,158C 627.339,151.337 637.006,139.003 639.5,121C 635.005,97.1743 620.671,83.5076 596.5,80C 577.17,79.5 557.836,79.3334 538.5,79.5 Z"/></g>
<g><path style="opacity:1" fill="#0f1b38" d="M 855.5,230.5 C 853.085,231.814 850.252,232.481 847,232.5C 843.979,232.498 841.146,232.164 838.5,231.5C 844.259,231.786 849.925,231.452 855.5,230.5 Z"/></g>
<g><path style="opacity:1" fill="#070d27" d="M 225.5,185.5 C 226.498,208.994 226.831,232.661 226.5,256.5C 214.833,256.5 203.167,256.5 191.5,256.5C 191.263,255.209 191.596,254.209 192.5,253.5C 203.116,255.477 214.116,256.144 225.5,255.5C 225.5,232.167 225.5,208.833 225.5,185.5 Z"/></g>
<g><path style="opacity:1" fill="#090f2a" d="M 74.5,168.5 C 74.5,197.5 74.5,226.5 74.5,255.5C 62.5,255.5 50.5,255.5 38.5,255.5C 38.1832,251.298 38.5166,247.298 39.5,243.5C 39.5,247.167 39.5,250.833 39.5,254.5C 50.8333,254.5 62.1667,254.5 73.5,254.5C 73.1687,225.662 73.502,196.995 74.5,168.5 Z"/></g>
<g><path style="opacity:1" fill="#121f3e" d="M 960.5,249.5 C 960.5,251.5 960.5,253.5 960.5,255.5C 957.833,255.5 955.167,255.5 952.5,255.5C 954.607,254.532 956.941,254.198 959.5,254.5C 959.216,252.585 959.549,250.919 960.5,249.5 Z"/></g>
<g><path style="opacity:1" fill="#0c1332" d="M 729.5,248.5 C 729.5,250.833 729.5,253.167 729.5,255.5C 739.833,255.5 750.167,255.5 760.5,255.5C 750.013,256.494 739.346,256.828 728.5,256.5C 728.194,253.615 728.527,250.948 729.5,248.5 Z"/></g>
<g><path style="opacity:1" fill="#0e1836" d="M 1183.5,229.5 C 1184.49,238.318 1184.83,247.318 1184.5,256.5C 1132.33,256.832 1080.33,256.499 1028.5,255.5C 1080.17,255.5 1131.83,255.5 1183.5,255.5C 1183.5,246.833 1183.5,238.167 1183.5,229.5 Z"/></g>
</svg>
