<?xml version="1.0" encoding="UTF-8"?>
<!DOCTYPE svg PUBLIC "-//W3C//DTD SVG 1.1//EN" "http://www.w3.org/Graphics/SVG/1.1/DTD/svg11.dtd">
<svg xmlns="http://www.w3.org/2000/svg" version="1.1" width="982px" height="812px" style="shape-rendering:geometricPrecision; text-rendering:geometricPrecision; image-rendering:optimizeQuality; fill-rule:evenodd; clip-rule:evenodd" xmlns:xlink="http://www.w3.org/1999/xlink">
<g><path style="opacity:1" fill="#3e45a9" d="M 930.5,30.5 C 931.833,30.5 933.167,30.5 934.5,30.5C 933.122,88.7807 907.456,132.614 857.5,162C 833.885,176.096 808.885,187.096 782.5,195C 725.075,211.69 667.742,228.69 610.5,246C 602.882,248.821 595.216,251.487 587.5,254C 581.723,256.055 576.389,258.888 571.5,262.5C 612.363,253.873 653.696,247.04 695.5,242C 728.558,236.389 761.558,230.389 794.5,224C 820.883,217.206 846.383,208.04 871,196.5C 871.833,196.833 872.667,197.167 873.5,197.5C 849.967,253.801 808.633,289.968 749.5,306C 737.94,309.409 726.273,312.409 714.5,315C 677.142,320.448 639.808,326.114 602.5,332C 586.749,334.95 571.083,338.283 555.5,342C 547.575,344.085 539.908,346.752 532.5,350C 534.116,351.077 535.949,351.577 538,351.5C 552.133,349.92 566.299,348.753 580.5,348C 627.592,347.45 674.592,345.117 721.5,341C 736.897,339.158 752.23,336.991 767.5,334.5C 767.245,337.016 766.411,339.35 765,341.5C 736.625,382.442 697.459,406.276 647.5,413C 634.35,414.065 621.183,414.898 608,415.5C 542.845,411.165 479.345,419.332 417.5,440C 384.824,455.583 355.324,475.75 329,500.5C 328.405,501.899 328.572,503.232 329.5,504.5C 349.507,523.673 369.84,542.506 390.5,561C 392.762,561.642 394.929,562.475 397,563.5C 399.814,562.034 402.647,560.534 405.5,559C 444.802,522.7 483.802,486.033 522.5,449C 544.374,447.908 566.207,447.075 588,446.5C 588.122,448.169 587.788,449.835 587,451.5C 568.461,470.04 549.295,487.873 529.5,505C 585.141,562.395 640.641,619.895 696,677.5C 696.5,595.834 696.667,514.167 696.5,432.5C 702.812,430.847 708.812,428.347 714.5,425C 721.866,421.318 728.533,416.652 734.5,411C 736.134,410.506 737.801,410.34 739.5,410.5C 738.85,525.25 739.516,639.917 741.5,754.5C 510.812,754.171 280.146,754.504 49.5,755.5C 49.5,594.167 49.5,432.833 49.5,271.5C 152.833,271.5 256.167,271.5 359.5,271.5C 359.66,273.199 359.494,274.866 359,276.5C 350.274,289.283 343.107,302.95 337.5,317.5C 269.836,318.333 202.169,318.833 134.5,319C 186.871,368.844 239.371,418.677 292,468.5C 293,467.5 294,466.5 295,465.5C 302.266,449.066 309.932,432.732 318,416.5C 345.206,366.086 371.873,315.42 398,264.5C 416.654,236.53 441.487,215.697 472.5,202C 497.675,191.608 523.008,181.608 548.5,172C 615.063,153.813 681.396,134.813 747.5,115C 788.368,101.044 828.701,85.7111 868.5,69C 891.011,58.9226 911.678,46.0893 930.5,30.5 Z M 97.5,352.5 C 152.276,403.407 206.609,454.74 260.5,506.5C 206.488,563.678 152.322,620.678 98,677.5C 97.5,569.167 97.3333,460.834 97.5,352.5 Z M 295.5,538.5 C 316.985,559.814 339.319,580.314 362.5,600C 378.42,609.376 395.42,612.043 413.5,608C 419.423,605.913 425.089,603.246 430.5,600C 452.333,580.167 474.167,560.333 496,540.5C 549.472,595.973 602.972,651.473 656.5,707C 482.833,707.667 309.167,707.667 135.5,707C 189.149,650.859 242.482,594.692 295.5,538.5 Z"/></g>
<g><path style="opacity:1" fill="#5c69e6" d="M 53.5,750.5 C 53.5,592.167 53.5,433.833 53.5,275.5C 153.668,275.167 253.668,275.501 353.5,276.5C 345.818,288.863 339.485,301.863 334.5,315.5C 266.166,315.333 197.833,315.5 129.5,316C 128.978,316.561 128.645,317.228 128.5,318C 180.193,369.359 232.859,419.693 286.5,469C 288.116,469.615 289.449,470.615 290.5,472C 293.308,472.92 295.475,472.087 297,469.5C 304.121,453.257 311.788,437.257 320,421.5C 347.843,369.816 375.176,317.816 402,265.5C 416.028,243.47 434.528,226.303 457.5,214C 488.233,199.642 519.566,186.642 551.5,175C 616.068,157.477 680.402,139.144 744.5,120C 787.373,105.395 829.707,89.3953 871.5,72C 892.415,62.3019 911.915,50.4685 930,36.5C 928.368,73.749 914.868,105.916 889.5,133C 867.085,151.878 842.418,167.212 815.5,179C 799.273,184.075 783.273,189.742 767.5,196C 722.146,208.872 676.813,221.872 631.5,235C 616.511,239.996 601.511,244.996 586.5,250C 579.973,252.513 573.807,255.68 568,259.5C 566.046,261.785 566.213,263.952 568.5,266C 571.5,266.667 574.5,266.667 577.5,266C 592.766,262.35 608.099,259.017 623.5,256C 668.686,250.116 713.686,243.116 758.5,235C 796.36,228.929 832.693,218.263 867.5,203C 842.566,255.245 801.9,288.578 745.5,303C 728.385,307.946 711.051,311.946 693.5,315C 645.649,320.026 598.315,328.026 551.5,339C 546.833,340.333 542.167,341.667 537.5,343C 533.963,344.281 530.796,346.114 528,348.5C 527.175,350.701 527.675,352.534 529.5,354C 549.864,353.887 570.198,352.887 590.5,351C 626.551,351.023 662.551,349.69 698.5,347C 718.595,345.224 738.595,342.724 758.5,339.5C 759.167,339.833 759.833,340.167 760.5,340.5C 734.323,377.612 698.656,400.112 653.5,408C 627.432,411.581 601.265,412.414 575,410.5C 523.691,410.468 473.525,417.968 424.5,433C 387.408,448.956 354.242,470.79 325,498.5C 324.362,499.609 323.862,500.775 323.5,502C 324.651,503.823 325.818,505.656 327,507.5C 347.533,527.035 368.367,546.202 389.5,565C 393.406,566.434 397.406,566.767 401.5,566C 405.11,564.056 408.443,561.723 411.5,559C 449.828,523.672 487.828,488.005 525.5,452C 543.833,451.333 562.167,451.333 580.5,452C 563.101,469.402 545.101,486.069 526.5,502C 524.993,502.837 524.493,504.004 525,505.5C 582.509,565.209 640.009,624.875 697.5,684.5C 698.086,684.291 698.586,683.957 699,683.5C 699.5,600.834 699.667,518.167 699.5,435.5C 713.061,431.304 725.228,424.638 736,415.5C 736.5,527.166 736.667,638.833 736.5,750.5C 508.833,750.5 281.167,750.5 53.5,750.5 Z M 97.5,352.5 C 97.3333,460.834 97.5,569.167 98,677.5C 152.322,620.678 206.488,563.678 260.5,506.5C 206.609,454.74 152.276,403.407 97.5,352.5 Z M 295.5,538.5 C 242.482,594.692 189.149,650.859 135.5,707C 309.167,707.667 482.833,707.667 656.5,707C 602.972,651.473 549.472,595.973 496,540.5C 474.167,560.333 452.333,580.167 430.5,600C 425.089,603.246 419.423,605.913 413.5,608C 395.42,612.043 378.42,609.376 362.5,600C 339.319,580.314 316.985,559.814 295.5,538.5 Z"/></g>
<g><path style="opacity:1" fill="#3e44a9" d="M 94.5,346.5 C 95.552,346.351 96.552,346.517 97.5,347C 153.854,400.022 210.188,453.022 266.5,506C 210.878,565.291 154.878,624.291 98.5,683C 97.2068,683.49 95.8734,683.657 94.5,683.5C 94.5,571.167 94.5,458.833 94.5,346.5 Z M 97.5,352.5 C 97.3333,460.834 97.5,569.167 98,677.5C 152.322,620.678 206.488,563.678 260.5,506.5C 206.609,454.74 152.276,403.407 97.5,352.5 Z"/></g>
<g><path style="opacity:1" fill="#4b57c8" d="M 353.5,276.5 C 253.668,275.501 153.668,275.167 53.5,275.5C 53.5,433.833 53.5,592.167 53.5,750.5C 52.5004,592.001 52.167,433.334 52.5,274.5C 153.169,274.167 253.836,274.5 354.5,275.5C 354.376,276.107 354.043,276.44 353.5,276.5 Z"/></g>
<g><path style="opacity:1" fill="#3e45a9" d="M 294.5,533.5 C 296.905,534.687 299.239,536.187 301.5,538C 321.932,558.771 343.266,578.437 365.5,597C 387.638,610.261 409.305,609.594 430.5,595C 452.134,575.701 473.467,556.035 494.5,536C 495.5,535.333 496.5,535.333 497.5,536C 553.38,593.379 608.714,651.212 663.5,709.5C 663.291,710.086 662.957,710.586 662.5,711C 485.167,711.667 307.833,711.667 130.5,711C 129.446,709.612 129.28,708.112 130,706.5C 185.037,648.964 239.871,591.298 294.5,533.5 Z M 295.5,538.5 C 242.482,594.692 189.149,650.859 135.5,707C 309.167,707.667 482.833,707.667 656.5,707C 602.972,651.473 549.472,595.973 496,540.5C 474.167,560.333 452.333,580.167 430.5,600C 425.089,603.246 419.423,605.913 413.5,608C 395.42,612.043 378.42,609.376 362.5,600C 339.319,580.314 316.985,559.814 295.5,538.5 Z"/></g>
</svg>
